<?xml version="1.0" standalone="no"?>
<!DOCTYPE svg PUBLIC "-//W3C//DTD SVG 20010904//EN"
 "http://www.w3.org/TR/2001/REC-SVG-20010904/DTD/svg10.dtd">
<svg version="1.0" xmlns="http://www.w3.org/2000/svg"
 width="500.000000pt" height="313.000000pt" viewBox="0 0 500.000000 313.000000"
 preserveAspectRatio="xMidYMid meet">

<g transform="translate(0.000000,313.000000) scale(0.100000,-0.100000)"
fill="#000000" stroke="none">
<path d="M2236 2109 c-53 -13 -105 -54 -123 -98 -9 -20 -19 -64 -23 -99 -9
-68 -31 -112 -61 -119 -28 -8 -23 -23 6 -21 14 1 25 6 25 11 0 4 4 6 9 3 14
-9 36 26 61 99 13 39 31 86 41 107 23 44 84 97 124 105 25 6 27 7 10 14 -24 9
-20 9 -69 -2z m-136 -288 c0 -5 -7 -11 -14 -14 -10 -4 -13 -1 -9 9 6 15 23 19
23 5z"/>
<path d="M2636 1789 c-21 -68 -56 -123 -121 -194 l-47 -50 7 -86 c4 -60 3 -89
-5 -94 -8 -5 -7 -11 2 -23 10 -12 10 -14 1 -8 -7 4 -13 2 -13 -3 0 -15 53 -14
68 1 7 7 12 41 12 80 0 70 14 112 45 138 9 8 30 40 46 72 25 50 30 70 30 139
0 44 -1 82 -3 84 -2 2 -11 -23 -22 -56z"/>
<path d="M1428 1524 c25 -50 46 -175 39 -233 -3 -25 -15 -65 -26 -88 -22 -44
-28 -113 -11 -113 10 0 15 43 11 84 -1 11 1 17 5 13 10 -10 32 18 41 49 4 16
7 63 7 105 0 66 -5 84 -34 143 -19 37 -38 70 -43 73 -5 3 0 -12 11 -33z"/>
<path d="M3121 1488 c-36 -53 -126 -147 -166 -175 -16 -12 -27 -24 -23 -28 3
-3 14 2 24 13 11 11 34 23 52 27 17 3 32 10 32 15 0 5 8 11 18 14 23 8 102 79
102 93 0 6 7 16 15 23 16 14 10 34 -7 24 -7 -5 -9 0 -6 14 9 35 -9 26 -41 -20z"/>
<path d="M1317 1397 c6 -30 -35 -88 -77 -109 -21 -11 -28 -18 -17 -18 33 0 74
29 91 64 18 37 21 72 7 80 -4 3 -6 -5 -4 -17z"/>
<path d="M3945 1337 c-16 -18 -52 -52 -80 -76 -27 -24 -79 -71 -115 -105 -36
-33 -82 -76 -103 -93 -24 -21 -32 -33 -22 -33 9 0 66 48 127 106 60 58 133
124 162 146 53 42 70 62 64 78 -2 5 -16 -5 -33 -23z"/>
<path d="M1086 1264 c12 -64 -30 -115 -106 -127 -15 -3 -7 -5 18 -6 59 -1 102
39 102 96 0 21 -5 45 -10 53 -7 11 -8 6 -4 -16z"/>
<path d="M2567 1142 c-27 -60 -31 -70 -19 -53 8 11 10 8 9 -11 -2 -24 -27 -30
-27 -6 0 5 -5 6 -10 3 -6 -4 -8 -11 -5 -16 4 -5 -2 -6 -12 -2 -16 6 -16 5 -4
-10 7 -9 21 -17 30 -17 28 0 71 24 66 37 -2 7 6 15 20 19 16 4 25 13 25 25 0
13 7 19 23 19 21 0 20 1 -8 24 -51 42 -64 40 -88 -12z"/>
<path d="M2690 1170 c-8 -5 -10 -10 -5 -10 6 0 17 5 25 10 8 5 11 10 5 10 -5
0 -17 -5 -25 -10z"/>
<path d="M860 1093 c-1 -48 -25 -80 -75 -98 -37 -13 -38 -14 -11 -15 19 0 39
11 62 34 28 28 34 42 34 75 0 23 -2 41 -5 41 -3 0 -5 -17 -5 -37z"/>
<path d="M4180 1062 c-35 -136 -105 -241 -214 -319 -28 -21 -53 -40 -56 -44
-3 -3 -12 -9 -20 -13 -8 -3 6 -4 32 -1 64 6 134 44 183 98 44 49 78 96 82 112
1 5 10 41 21 78 20 69 19 102 -4 124 -9 9 -14 2 -24 -35z"/>
<path d="M3535 930 c-3 -10 -20 -31 -36 -45 l-31 -25 31 0 c34 0 61 30 61 67
0 28 -16 30 -25 3z"/>
<path d="M1056 911 c-4 -5 3 -7 14 -4 23 6 26 13 6 13 -8 0 -17 -4 -20 -9z"/>
<path d="M1000 880 c-13 -8 -13 -10 2 -10 9 0 20 5 23 10 8 13 -5 13 -25 0z"/>
<path d="M3478 743 c7 -3 16 -2 19 1 4 3 -2 6 -13 5 -11 0 -14 -3 -6 -6z"/>
</g>
</svg>
